<mxfile host="app.diagrams.net" agent="Mozilla/5.0 (Windows NT 10.0; Win64; x64) AppleWebKit/537.36 (KHTML, like Gecko) Chrome/135.0.0.0 Safari/537.36" version="26.2.6">
  <diagram name="Página-1" id="h75m8efK6T6Jm9ZIweNG">
    <mxGraphModel dx="868" dy="465" grid="1" gridSize="10" guides="1" tooltips="1" connect="1" arrows="1" fold="1" page="1" pageScale="1" pageWidth="827" pageHeight="1169" math="0" shadow="0">
      <root>
        <mxCell id="0" />
        <mxCell id="1" parent="0" />
        <mxCell id="daxum-zIr_zX-fUp-ssQ-1" value="&lt;h1 style=&quot;margin-top: 0px;&quot;&gt;Desafio:&lt;/h1&gt;&lt;p&gt;Solicite a idade de uma pessoa. Se tiver dezoito anos ou mais, pode tirar a CNH. Caso contrário, recebe uma mensagem falando que não é possível tirar a carteira de motorista.&lt;/p&gt;" style="text;html=1;whiteSpace=wrap;overflow=hidden;rounded=0;" vertex="1" parent="1">
          <mxGeometry x="40" y="40" width="520" height="90" as="geometry" />
        </mxCell>
        <mxCell id="daxum-zIr_zX-fUp-ssQ-2" value="IDADE" style="rounded=0;whiteSpace=wrap;html=1;" vertex="1" parent="1">
          <mxGeometry x="209" y="140" width="410" height="30" as="geometry" />
        </mxCell>
        <mxCell id="daxum-zIr_zX-fUp-ssQ-3" value="IDADE &amp;gt;= 18 ANOS" style="rounded=0;whiteSpace=wrap;html=1;" vertex="1" parent="1">
          <mxGeometry x="209" y="220" width="191" height="30" as="geometry" />
        </mxCell>
        <mxCell id="daxum-zIr_zX-fUp-ssQ-4" value="IDADE &amp;lt; 18 ANOS" style="rounded=0;whiteSpace=wrap;html=1;" vertex="1" parent="1">
          <mxGeometry x="430" y="220" width="189" height="30" as="geometry" />
        </mxCell>
        <mxCell id="daxum-zIr_zX-fUp-ssQ-5" value="PODE TIRAR A CNH" style="rounded=0;whiteSpace=wrap;html=1;" vertex="1" parent="1">
          <mxGeometry x="209" y="260" width="191" height="30" as="geometry" />
        </mxCell>
        <mxCell id="daxum-zIr_zX-fUp-ssQ-6" value="NÃO PODE TIRAR A CNH" style="rounded=0;whiteSpace=wrap;html=1;" vertex="1" parent="1">
          <mxGeometry x="430" y="260" width="189" height="30" as="geometry" />
        </mxCell>
        <mxCell id="daxum-zIr_zX-fUp-ssQ-7" value="IDADE &amp;gt;=18" style="rounded=0;whiteSpace=wrap;html=1;" vertex="1" parent="1">
          <mxGeometry x="209" y="180" width="411" height="30" as="geometry" />
        </mxCell>
        <mxCell id="daxum-zIr_zX-fUp-ssQ-16" style="edgeStyle=orthogonalEdgeStyle;rounded=0;orthogonalLoop=1;jettySize=auto;html=1;exitX=0.5;exitY=1;exitDx=0;exitDy=0;" edge="1" parent="1" source="daxum-zIr_zX-fUp-ssQ-8" target="daxum-zIr_zX-fUp-ssQ-10">
          <mxGeometry relative="1" as="geometry">
            <Array as="points">
              <mxPoint x="414" y="390" />
              <mxPoint x="414" y="390" />
            </Array>
          </mxGeometry>
        </mxCell>
        <mxCell id="daxum-zIr_zX-fUp-ssQ-8" value="INÍCIO" style="ellipse;whiteSpace=wrap;html=1;aspect=fixed;" vertex="1" parent="1">
          <mxGeometry x="394" y="320" width="40" height="40" as="geometry" />
        </mxCell>
        <mxCell id="daxum-zIr_zX-fUp-ssQ-17" style="edgeStyle=orthogonalEdgeStyle;rounded=0;orthogonalLoop=1;jettySize=auto;html=1;exitX=0.5;exitY=1;exitDx=0;exitDy=0;entryX=0.5;entryY=0;entryDx=0;entryDy=0;" edge="1" parent="1" source="daxum-zIr_zX-fUp-ssQ-10" target="daxum-zIr_zX-fUp-ssQ-11">
          <mxGeometry relative="1" as="geometry">
            <Array as="points">
              <mxPoint x="415" y="440" />
              <mxPoint x="415" y="460" />
            </Array>
          </mxGeometry>
        </mxCell>
        <mxCell id="daxum-zIr_zX-fUp-ssQ-10" value="IDADE" style="shape=parallelogram;perimeter=parallelogramPerimeter;whiteSpace=wrap;html=1;fixedSize=1;" vertex="1" parent="1">
          <mxGeometry x="350" y="390" width="120" height="50" as="geometry" />
        </mxCell>
        <mxCell id="daxum-zIr_zX-fUp-ssQ-18" style="edgeStyle=orthogonalEdgeStyle;rounded=0;orthogonalLoop=1;jettySize=auto;html=1;exitX=0;exitY=0.5;exitDx=0;exitDy=0;entryX=0.5;entryY=0;entryDx=0;entryDy=0;" edge="1" parent="1" source="daxum-zIr_zX-fUp-ssQ-11" target="daxum-zIr_zX-fUp-ssQ-12">
          <mxGeometry relative="1" as="geometry" />
        </mxCell>
        <mxCell id="daxum-zIr_zX-fUp-ssQ-22" value="SIM" style="edgeLabel;html=1;align=center;verticalAlign=middle;resizable=0;points=[];" vertex="1" connectable="0" parent="daxum-zIr_zX-fUp-ssQ-18">
          <mxGeometry x="-0.5069" y="1" relative="1" as="geometry">
            <mxPoint as="offset" />
          </mxGeometry>
        </mxCell>
        <mxCell id="daxum-zIr_zX-fUp-ssQ-19" style="edgeStyle=orthogonalEdgeStyle;rounded=0;orthogonalLoop=1;jettySize=auto;html=1;exitX=1;exitY=0.5;exitDx=0;exitDy=0;entryX=0.5;entryY=0;entryDx=0;entryDy=0;" edge="1" parent="1" source="daxum-zIr_zX-fUp-ssQ-11" target="daxum-zIr_zX-fUp-ssQ-13">
          <mxGeometry relative="1" as="geometry" />
        </mxCell>
        <mxCell id="daxum-zIr_zX-fUp-ssQ-23" value="NÃO" style="edgeLabel;html=1;align=center;verticalAlign=middle;resizable=0;points=[];" vertex="1" connectable="0" parent="daxum-zIr_zX-fUp-ssQ-19">
          <mxGeometry x="-0.5019" y="-1" relative="1" as="geometry">
            <mxPoint as="offset" />
          </mxGeometry>
        </mxCell>
        <mxCell id="daxum-zIr_zX-fUp-ssQ-11" value="IDADE &amp;gt;= 18" style="rhombus;whiteSpace=wrap;html=1;" vertex="1" parent="1">
          <mxGeometry x="354.5" y="480" width="120" height="80" as="geometry" />
        </mxCell>
        <mxCell id="daxum-zIr_zX-fUp-ssQ-21" style="edgeStyle=orthogonalEdgeStyle;rounded=0;orthogonalLoop=1;jettySize=auto;html=1;entryX=0;entryY=0.5;entryDx=0;entryDy=0;exitX=0.517;exitY=0.85;exitDx=0;exitDy=0;exitPerimeter=0;" edge="1" parent="1" source="daxum-zIr_zX-fUp-ssQ-12" target="daxum-zIr_zX-fUp-ssQ-14">
          <mxGeometry relative="1" as="geometry">
            <Array as="points">
              <mxPoint x="309" y="660" />
            </Array>
          </mxGeometry>
        </mxCell>
        <mxCell id="daxum-zIr_zX-fUp-ssQ-12" value="PODE TIRAR A CNH" style="shape=document;whiteSpace=wrap;html=1;boundedLbl=1;" vertex="1" parent="1">
          <mxGeometry x="254.5" y="560" width="105.5" height="60" as="geometry" />
        </mxCell>
        <mxCell id="daxum-zIr_zX-fUp-ssQ-20" style="edgeStyle=orthogonalEdgeStyle;rounded=0;orthogonalLoop=1;jettySize=auto;html=1;entryX=1;entryY=0.5;entryDx=0;entryDy=0;exitX=0.597;exitY=0.783;exitDx=0;exitDy=0;exitPerimeter=0;" edge="1" parent="1" source="daxum-zIr_zX-fUp-ssQ-13" target="daxum-zIr_zX-fUp-ssQ-14">
          <mxGeometry relative="1" as="geometry">
            <Array as="points">
              <mxPoint x="523" y="660" />
            </Array>
          </mxGeometry>
        </mxCell>
        <mxCell id="daxum-zIr_zX-fUp-ssQ-13" value="NÃO PODE TIRAR A CNH" style="shape=document;whiteSpace=wrap;html=1;boundedLbl=1;" vertex="1" parent="1">
          <mxGeometry x="460" y="560" width="105.5" height="60" as="geometry" />
        </mxCell>
        <mxCell id="daxum-zIr_zX-fUp-ssQ-14" value="FIM" style="ellipse;whiteSpace=wrap;html=1;aspect=fixed;" vertex="1" parent="1">
          <mxGeometry x="390" y="640" width="40" height="40" as="geometry" />
        </mxCell>
      </root>
    </mxGraphModel>
  </diagram>
</mxfile>
